<svg width="540" height="485" viewBox="0 0 540 485" fill="none" xmlns="http://www.w3.org/2000/svg">
<g clip-path="url(#clip0_535_48)">
<path d="M256 0H4C1.79086 0 0 1.79086 0 4V231C0 233.209 1.79086 235 4 235H256C258.209 235 260 233.209 260 231V4C260 1.79086 258.209 0 256 0Z" fill="white"/>
<path fill-rule="evenodd" clip-rule="evenodd" d="M16.208 16.207H246.494V218.793H16.208V16.207Z" fill="#FAFAFA" stroke="#E5E9EA"/>
<path fill-rule="evenodd" clip-rule="evenodd" d="M16.208 117.5H246.494V118.5H16.208V117.5ZM16.208 136.493H246.494V137.493H16.208V136.493ZM16.208 155.485H246.494V156.485H16.208V155.485ZM16.208 174.477H246.494V175.477H16.208V174.477ZM16.208 41.5301H246.494V42.5301H16.208V41.5301ZM16.208 22.5381H246.494V23.5381H16.208V22.5381ZM16.208 60.5231H246.494V61.5231H16.208V60.5231ZM16.208 79.5151H246.494V80.5151H16.208V79.5151ZM16.208 98.5081H246.494V99.5081H16.208V98.5081ZM16.208 193.47H246.494V194.47H16.208V193.47ZM16.208 212.462H246.494V213.462H16.208V212.462Z" fill="#E5E9EA"/>
<path fill-rule="evenodd" clip-rule="evenodd" d="M22.2861 117.5H53.3511V163.147C53.3511 164.473 52.8244 165.745 51.8867 166.683C50.949 167.62 49.6772 168.147 48.3511 168.147H27.2861C25.9601 168.147 24.6883 167.62 23.7506 166.683C22.8129 165.745 22.2861 164.473 22.2861 163.147V117.5Z" fill="#242D52"/>
<path fill-rule="evenodd" clip-rule="evenodd" d="M22.2861 117.5H53.3511V150.485C53.3511 151.811 52.8244 153.083 51.8867 154.021C50.949 154.958 49.6772 155.485 48.3511 155.485H27.2861C25.9601 155.485 24.6883 154.958 23.7506 154.021C22.8129 153.083 22.2861 151.811 22.2861 150.485V117.5ZM69.5581 117.234H100.623V82.6582C100.623 81.3321 100.096 80.0604 99.1587 79.1227C98.221 78.185 96.9492 77.6582 95.6231 77.6582H74.5581C73.232 77.6582 71.9603 78.185 71.0226 79.1227C70.0849 80.0604 69.5581 81.3321 69.5581 82.6582V117.234Z" fill="#F3603C"/>
<path fill-rule="evenodd" clip-rule="evenodd" d="M69.5576 117.234H100.623V169.224C100.623 170.55 100.096 171.822 99.1581 172.759C98.2205 173.697 96.9487 174.224 95.6226 174.224H74.5576C73.2315 174.224 71.9598 173.697 71.0221 172.759C70.0844 171.822 69.5576 170.55 69.5576 169.224V117.234ZM162.078 117.5H193.143V46.1929C193.143 45.5363 193.013 44.8861 192.762 44.2795C192.511 43.6728 192.142 43.1216 191.678 42.6573C191.214 42.193 190.663 41.8247 190.056 41.5735C189.449 41.3222 188.799 41.1929 188.143 41.1929H167.078C165.752 41.1929 164.48 41.7197 163.542 42.6573C162.604 43.595 162.078 44.8668 162.078 46.1929V117.5Z" fill="#242D52"/>
<path fill-rule="evenodd" clip-rule="evenodd" d="M162.078 117.5H193.143V65.27C193.143 64.6134 193.014 63.9632 192.763 63.3566C192.511 62.75 192.143 62.1988 191.679 61.7345C191.214 61.2702 190.663 60.9019 190.057 60.6506C189.45 60.3993 188.8 60.27 188.143 60.27H167.078C165.752 60.27 164.48 60.7968 163.543 61.7345C162.605 62.6722 162.078 63.9439 162.078 65.27V117.5Z" fill="#F3603C"/>
<path fill-rule="evenodd" clip-rule="evenodd" d="M209.351 117.5H240.416V175.977C240.416 177.303 239.889 178.575 238.951 179.513C238.013 180.45 236.742 180.977 235.416 180.977H214.35C213.024 180.977 211.752 180.45 210.814 179.513C209.876 178.575 209.35 177.303 209.35 175.977L209.351 117.5Z" fill="#242D52"/>
<path fill-rule="evenodd" clip-rule="evenodd" d="M209.351 117.5H240.416V163.282C240.416 164.608 239.889 165.88 238.951 166.818C238.013 167.755 236.742 168.282 235.416 168.282H214.35C213.024 168.282 211.752 167.755 210.814 166.818C209.876 165.88 209.35 164.608 209.35 163.282L209.351 117.5Z" fill="#F3603C"/>
<path fill-rule="evenodd" clip-rule="evenodd" d="M115.481 117.5H146.546V207.716C146.546 209.042 146.02 210.314 145.082 211.252C144.144 212.189 142.873 212.716 141.546 212.716H120.48C119.154 212.716 117.883 212.189 116.945 211.252C116.007 210.314 115.48 209.042 115.48 207.716L115.481 117.5Z" fill="#F3603C"/>
<path fill-rule="evenodd" clip-rule="evenodd" d="M115.481 117.5H146.546V150.586C146.546 151.912 146.02 153.184 145.082 154.122C144.144 155.059 142.873 155.586 141.546 155.586H120.48C119.154 155.586 117.883 155.059 116.945 154.122C116.007 153.184 115.48 151.912 115.48 150.586L115.481 117.5Z" fill="#242D52"/>
<path d="M536 0H284C281.791 0 280 1.79086 280 4V231C280 233.209 281.791 235 284 235H536C538.209 235 540 233.209 540 231V4C540 1.79086 538.209 0 536 0Z" fill="white"/>
<path d="M410.338 178.534C444.049 178.534 471.377 151.208 471.377 117.5C471.377 83.7917 444.049 56.4658 410.338 56.4658C376.627 56.4658 349.299 83.7917 349.299 117.5C349.299 151.208 376.627 178.534 410.338 178.534Z" stroke="white" stroke-width="40"/>
<mask id="mask0_535_48" style="mask-type:luminance" maskUnits="userSpaceOnUse" x="329" y="36" width="163" height="163">
<path d="M410.338 198.534C455.094 198.534 491.377 162.254 491.377 117.5C491.377 72.746 455.094 36.4658 410.338 36.4658C365.581 36.4658 329.299 72.746 329.299 117.5C329.299 162.254 365.581 198.534 410.338 198.534Z" fill="white"/>
</mask>
<g mask="url(#mask0_535_48)">
<path d="M410.338 198.534C455.094 198.534 491.377 162.254 491.377 117.5C491.377 72.746 455.094 36.4658 410.338 36.4658C365.581 36.4658 329.299 72.746 329.299 117.5C329.299 162.254 365.581 198.534 410.338 198.534Z" stroke="#F3603C" stroke-width="80" stroke-dasharray="502 502"/>
</g>
<mask id="mask1_535_48" style="mask-type:luminance" maskUnits="userSpaceOnUse" x="329" y="36" width="163" height="163">
<path d="M410.338 198.534C455.094 198.534 491.377 162.254 491.377 117.5C491.377 72.746 455.094 36.4658 410.338 36.4658C365.581 36.4658 329.299 72.746 329.299 117.5C329.299 162.254 365.581 198.534 410.338 198.534Z" fill="white"/>
</mask>
<g mask="url(#mask1_535_48)">
<path d="M410.338 198.534C455.094 198.534 491.377 162.254 491.377 117.5C491.377 72.746 455.094 36.4658 410.338 36.4658C365.581 36.4658 329.299 72.746 329.299 117.5C329.299 162.254 365.581 198.534 410.338 198.534Z" stroke="#242D52" stroke-width="80" stroke-dasharray="340 340"/>
</g>
<path d="M396 250H144C141.791 250 140 251.791 140 254V481C140 483.209 141.791 485 144 485H396C398.209 485 400 483.209 400 481V254C400 251.791 398.209 250 396 250Z" fill="white"/>
<path d="M258.234 390.46H160.208C157.999 390.46 156.208 392.251 156.208 394.46V464.793C156.208 467.002 157.999 468.793 160.208 468.793H258.234C260.443 468.793 262.234 467.002 262.234 464.793V394.46C262.234 392.251 260.443 390.46 258.234 390.46Z" fill="#F3603C"/>
<path d="M179.252 449.873V445.966H183.149V444.186H179.252V440.278H177.471V444.185H173.563V445.965H177.471V449.873H179.251H179.252ZM191.516 451.911V437.805H189.358L185.925 440.802V443.176L189.239 440.199V451.91H191.515L191.516 451.911ZM197.953 452.109C198.335 452.109 198.663 451.974 198.937 451.703C199.211 451.433 199.347 451.106 199.347 450.723C199.347 450.341 199.211 450.013 198.937 449.74C198.81 449.608 198.657 449.504 198.488 449.433C198.319 449.363 198.137 449.328 197.953 449.33C197.577 449.33 197.251 449.466 196.973 449.74C196.84 449.867 196.735 450.019 196.663 450.189C196.592 450.358 196.556 450.54 196.558 450.724C196.558 451.1 196.697 451.424 196.974 451.698C197.251 451.972 197.577 452.109 197.953 452.109ZM206.537 452.099C207.987 452.099 209.16 451.655 210.054 450.769C210.947 449.881 211.394 448.716 211.394 447.272C211.394 445.834 210.956 444.728 210.078 443.952C209.201 443.178 207.879 442.791 206.112 442.791H204.568L204.875 439.873H210.751V437.815H202.888L202.156 444.729H205.786C207.996 444.729 209.1 445.603 209.1 447.351C209.1 448.142 208.868 448.781 208.403 449.265C207.938 449.75 207.3 449.992 206.488 449.992C205.783 449.992 205.181 449.787 204.683 449.379C204.185 448.969 203.936 448.356 203.936 447.539C203.936 447.374 203.959 447.136 204.006 446.827L201.72 446.965C201.687 447.249 201.67 447.486 201.67 447.677C201.67 448.594 201.898 449.393 202.353 450.076C202.788 450.741 203.402 451.269 204.124 451.599C204.85 451.932 205.654 452.099 206.538 452.099H206.537ZM215.744 443.809C216.152 443.816 216.556 443.739 216.932 443.582C217.309 443.426 217.648 443.193 217.93 442.899C218.53 442.286 218.83 441.551 218.83 440.694C218.83 439.843 218.53 439.114 217.93 438.507C217.648 438.213 217.309 437.981 216.932 437.824C216.556 437.667 216.152 437.59 215.744 437.597C214.894 437.597 214.164 437.901 213.558 438.507C213.265 438.79 213.033 439.13 212.877 439.506C212.72 439.882 212.643 440.287 212.648 440.694C212.648 441.557 212.95 442.293 213.553 442.899C214.156 443.506 214.887 443.809 215.744 443.809ZM216.832 451.921L224.292 437.785H222.312L214.874 451.921H216.832ZM215.744 442.237C215.322 442.237 214.959 442.087 214.656 441.787C214.509 441.646 214.393 441.476 214.315 441.288C214.237 441.1 214.198 440.898 214.201 440.694C214.201 440.264 214.353 439.904 214.656 439.61C214.799 439.468 214.969 439.356 215.156 439.28C215.343 439.205 215.543 439.167 215.744 439.17C216.173 439.17 216.536 439.319 216.832 439.615C217.129 439.912 217.277 440.271 217.277 440.694C217.277 441.122 217.131 441.487 216.837 441.787C216.544 442.087 216.179 442.237 215.744 442.237ZM223.529 452.079C224.38 452.079 225.104 451.776 225.701 451.169C225.991 450.884 226.219 450.543 226.373 450.168C226.527 449.792 226.603 449.389 226.596 448.983C226.596 448.126 226.296 447.395 225.696 446.792C225.417 446.501 225.08 446.27 224.707 446.114C224.334 445.959 223.933 445.881 223.529 445.887C222.672 445.887 221.94 446.188 221.333 446.792C221.04 447.075 220.807 447.416 220.651 447.793C220.494 448.17 220.417 448.575 220.423 448.983C220.423 449.84 220.725 450.571 221.328 451.174C221.932 451.777 222.666 452.079 223.529 452.079ZM223.529 450.516C223.094 450.516 222.729 450.366 222.431 450.066C222.288 449.925 222.174 449.756 222.098 449.57C222.021 449.384 221.983 449.184 221.986 448.983C221.986 448.548 222.135 448.182 222.431 447.885C222.574 447.74 222.746 447.625 222.934 447.549C223.123 447.472 223.326 447.435 223.529 447.44C223.945 447.44 224.306 447.591 224.613 447.895C224.919 448.198 225.073 448.561 225.073 448.983C225.073 449.405 224.921 449.766 224.618 450.066C224.314 450.366 223.952 450.516 223.529 450.516Z" fill="white"/>
<path d="M379.792 390.46H281.766C279.556 390.46 277.766 392.251 277.766 394.46V464.793C277.766 467.002 279.556 468.793 281.766 468.793H379.792C382.001 468.793 383.792 467.002 383.792 464.793V394.46C383.792 392.251 382.001 390.46 379.792 390.46Z" fill="#FAFAFA"/>
<path d="M299.869 452.099C300.805 452.099 301.646 451.931 302.391 451.594C303.113 451.271 303.729 450.75 304.167 450.091C304.606 449.431 304.825 448.67 304.825 447.806C304.825 446.956 304.607 446.213 304.172 445.58C303.73 444.941 303.117 444.441 302.402 444.136C302.929 443.826 303.344 443.422 303.648 442.924C303.953 442.422 304.111 441.844 304.103 441.257C304.103 440.189 303.703 439.314 302.901 438.631C302.1 437.949 301.089 437.607 299.869 437.607C298.629 437.607 297.607 437.947 296.802 438.627C295.998 439.305 295.595 440.182 295.595 441.257C295.595 441.871 295.75 442.427 296.06 442.924C296.37 443.422 296.796 443.826 297.336 444.136C296.578 444.459 295.983 444.937 295.551 445.57C295.119 446.203 294.903 446.949 294.903 447.806C294.903 448.67 295.123 449.431 295.561 450.091C296 450.75 296.617 451.27 297.341 451.589C298.09 451.929 298.932 452.099 299.869 452.099ZM299.869 443.434C299.262 443.434 298.751 443.237 298.336 442.845C298.135 442.66 297.975 442.434 297.867 442.183C297.759 441.931 297.707 441.659 297.712 441.386C297.712 440.819 297.92 440.342 298.336 439.956C298.751 439.571 299.262 439.378 299.869 439.378C300.469 439.378 300.977 439.571 301.392 439.957C301.808 440.342 302.016 440.819 302.016 441.386C302.016 441.96 301.806 442.444 301.387 442.84C300.98 443.231 300.434 443.445 299.869 443.434ZM299.869 450.041C299.097 450.041 298.458 449.814 297.949 449.359C297.442 448.904 297.188 448.297 297.188 447.539C297.188 446.794 297.442 446.197 297.95 445.749C298.458 445.299 299.097 445.076 299.869 445.076C300.627 445.076 301.26 445.3 301.769 445.748C302.276 446.197 302.53 446.794 302.53 447.538C302.53 448.291 302.276 448.896 301.768 449.354C301.26 449.812 300.629 450.041 299.869 450.041ZM310.945 452.1C311.881 452.1 312.722 451.932 313.467 451.595C314.189 451.272 314.805 450.751 315.243 450.092C315.682 449.432 315.901 448.671 315.901 447.807C315.901 446.957 315.683 446.214 315.248 445.581C314.806 444.942 314.193 444.442 313.478 444.137C314.005 443.827 314.42 443.423 314.724 442.925C315.029 442.423 315.187 441.845 315.179 441.258C315.179 440.19 314.779 439.315 313.977 438.632C313.176 437.95 312.165 437.608 310.945 437.608C309.705 437.608 308.683 437.948 307.878 438.628C307.074 439.306 306.671 440.183 306.671 441.258C306.671 441.872 306.826 442.428 307.136 442.925C307.446 443.423 307.872 443.827 308.412 444.137C307.654 444.46 307.059 444.938 306.627 445.571C306.195 446.204 305.979 446.95 305.979 447.807C305.979 448.671 306.199 449.432 306.637 450.092C307.076 450.751 307.693 451.271 308.417 451.59C309.166 451.93 310.008 452.1 310.945 452.1ZM310.945 443.435C310.338 443.435 309.827 443.238 309.411 442.846C309.21 442.661 309.05 442.435 308.943 442.184C308.835 441.932 308.783 441.66 308.788 441.387C308.788 440.82 308.996 440.343 309.411 439.957C309.827 439.572 310.338 439.379 310.945 439.379C311.545 439.379 312.053 439.572 312.468 439.958C312.884 440.343 313.091 440.82 313.091 441.387C313.091 441.961 312.882 442.445 312.463 442.841C312.056 443.232 311.51 443.446 310.945 443.435ZM310.945 450.042C310.173 450.042 309.533 449.815 309.025 449.36C308.518 448.905 308.264 448.298 308.264 447.54C308.264 446.795 308.518 446.198 309.026 445.75C309.533 445.3 310.173 445.077 310.945 445.077C311.703 445.077 312.336 445.301 312.845 445.749C313.352 446.198 313.605 446.795 313.605 447.539C313.605 448.292 313.352 448.897 312.845 449.355C312.336 449.813 311.703 450.042 310.945 450.042ZM319.38 452.11C319.763 452.11 320.091 451.975 320.365 451.704C320.638 451.434 320.775 451.107 320.775 450.724C320.775 450.342 320.638 450.014 320.365 449.741C320.238 449.609 320.085 449.504 319.915 449.434C319.746 449.363 319.564 449.328 319.38 449.331C319.005 449.331 318.678 449.467 318.401 449.741C318.268 449.868 318.163 450.02 318.091 450.19C318.02 450.359 317.984 450.541 317.986 450.725C317.986 451.101 318.124 451.425 318.401 451.699C318.678 451.973 319.005 452.109 319.381 452.109L319.38 452.11ZM332.693 451.912V449.854H326.183L330.329 445.561C330.995 444.869 331.483 444.219 331.793 443.613C332.103 443.006 332.258 442.343 332.258 441.624C332.258 440.371 331.839 439.386 331.001 438.667C330.164 437.947 329.086 437.588 327.767 437.588C326.362 437.588 325.247 437.981 324.423 438.766C323.599 439.55 323.186 440.675 323.186 442.139V442.93L325.452 443.148V442.109C325.452 441.192 325.659 440.525 326.075 440.106C326.49 439.687 327.058 439.478 327.776 439.478C328.462 439.478 329.006 439.668 329.409 440.047C329.811 440.426 330.012 440.955 330.012 441.634C330.012 442.511 329.541 443.434 328.598 444.404L322.958 450.191V451.912H332.693ZM342.395 451.912V449.152H344.334V447.104H342.394V437.806H338.925L333.494 447.095V449.152H340.122V451.912H342.397H342.395ZM340.12 447.104H335.708L340.12 439.27V447.104ZM348.249 443.81C348.657 443.817 349.061 443.74 349.437 443.583C349.813 443.426 350.153 443.194 350.435 442.9C351.035 442.287 351.335 441.552 351.335 440.695C351.335 439.844 351.035 439.115 350.435 438.508C350.153 438.214 349.813 437.981 349.437 437.825C349.061 437.668 348.657 437.591 348.249 437.598C347.398 437.598 346.669 437.902 346.062 438.508C345.769 438.791 345.537 439.131 345.381 439.507C345.224 439.883 345.147 440.288 345.152 440.695C345.152 441.558 345.454 442.294 346.057 442.9C346.661 443.507 347.391 443.81 348.249 443.81ZM349.337 451.922L356.796 437.786H354.817L347.378 451.922H349.337ZM348.249 442.238C347.827 442.238 347.464 442.088 347.16 441.788C347.013 441.647 346.897 441.477 346.819 441.289C346.74 441.101 346.702 440.899 346.705 440.695C346.705 440.265 346.857 439.905 347.16 439.611C347.303 439.469 347.473 439.356 347.66 439.281C347.847 439.205 348.048 439.168 348.249 439.171C348.677 439.171 349.04 439.32 349.337 439.616C349.634 439.913 349.782 440.272 349.782 440.695C349.782 441.123 349.635 441.488 349.342 441.788C349.048 442.088 348.684 442.238 348.249 442.238ZM356.034 452.08C356.884 452.08 357.608 451.777 358.205 451.17C358.495 450.885 358.723 450.544 358.877 450.169C359.031 449.793 359.107 449.39 359.101 448.984C359.101 448.127 358.801 447.396 358.201 446.793C357.922 446.501 357.585 446.271 357.212 446.115C356.839 445.959 356.438 445.882 356.034 445.888C355.177 445.888 354.444 446.189 353.838 446.793C353.545 447.076 353.312 447.417 353.156 447.794C352.999 448.171 352.922 448.576 352.928 448.984C352.928 449.841 353.229 450.572 353.833 451.175C354.436 451.778 355.171 452.08 356.034 452.08ZM356.034 450.517C355.599 450.517 355.233 450.367 354.936 450.067C354.793 449.926 354.679 449.757 354.603 449.571C354.526 449.385 354.488 449.185 354.491 448.984C354.491 448.549 354.639 448.183 354.936 447.886C355.079 447.741 355.25 447.626 355.439 447.55C355.628 447.473 355.831 447.436 356.034 447.441C356.449 447.441 356.81 447.592 357.117 447.896C357.424 448.199 357.577 448.562 357.577 448.984C357.577 449.406 357.425 449.767 357.122 450.067C356.819 450.367 356.456 450.517 356.034 450.517Z" fill="#1E272E"/>
<path d="M379.792 266.207H160.208C157.999 266.207 156.208 267.998 156.208 270.207V370.253C156.208 372.462 157.999 374.253 160.208 374.253H379.792C382.001 374.253 383.792 372.462 383.792 370.253V270.207C383.792 267.998 382.001 266.207 379.792 266.207Z" fill="#FAFAFA"/>
<path d="M184.994 351.019C186.992 351.019 188.785 350.66 190.375 349.943C191.965 349.211 193.228 348.142 194.163 346.735C195.099 345.328 195.567 343.703 195.567 341.86C195.567 340.045 195.102 338.463 194.174 337.112C193.245 335.762 191.986 334.735 190.396 334.032C191.522 333.37 192.408 332.508 193.056 331.446C193.703 330.384 194.026 329.199 194.026 327.89C194.026 325.611 193.171 323.744 191.462 322.288C189.752 320.831 187.597 320.103 184.994 320.103C182.349 320.103 180.168 320.828 178.452 322.277C176.735 323.726 175.877 325.597 175.877 327.89C175.877 329.199 176.207 330.384 176.869 331.446C177.53 332.508 178.437 333.37 179.591 334.031C177.973 334.721 176.703 335.741 175.781 337.091C174.861 338.441 174.4 340.031 174.4 341.861C174.4 343.703 174.867 345.328 175.803 346.735C176.739 348.142 178.005 349.208 179.602 349.932C181.199 350.657 182.996 351.019 184.994 351.019ZM184.994 332.533C183.699 332.533 182.609 332.114 181.723 331.277C180.836 330.44 180.393 329.403 180.393 328.165C180.393 326.955 180.836 325.938 181.723 325.115C182.609 324.292 183.699 323.881 184.993 323.881C186.274 323.881 187.357 324.292 188.243 325.115C189.13 325.938 189.573 326.955 189.573 328.165C189.573 329.389 189.127 330.423 188.233 331.267C187.34 332.111 186.261 332.533 184.994 332.533ZM184.994 346.63C183.348 346.63 181.983 346.144 180.9 345.173C179.816 344.203 179.275 342.908 179.275 341.291C179.275 339.701 179.816 338.428 180.9 337.471C181.983 336.514 183.348 336.036 184.994 336.036C186.612 336.036 187.962 336.514 189.046 337.471C190.129 338.428 190.671 339.701 190.671 341.291C190.671 342.894 190.129 344.185 189.046 345.163C187.962 346.141 186.612 346.63 184.994 346.63ZM206.731 350.618L216.46 337.745C218.232 335.354 219.119 332.927 219.119 330.465C219.119 328.495 218.64 326.719 217.684 325.136C216.749 323.574 215.402 322.3 213.79 321.454C212.15 320.582 210.332 320.146 208.335 320.146C206.379 320.146 204.582 320.578 202.943 321.443C201.303 322.309 199.995 323.547 199.017 325.157C198.039 326.768 197.557 328.58 197.572 330.591C197.586 332.561 198.054 334.309 198.975 335.835C199.897 337.362 201.082 338.519 202.531 339.307C203.968 340.092 205.58 340.498 207.216 340.489C207.877 340.489 208.51 340.425 209.116 340.299L201.096 350.618H206.731ZM208.461 336.858C206.661 336.858 205.187 336.293 204.04 335.16C202.893 334.028 202.313 332.54 202.299 330.697C202.285 328.882 202.862 327.408 204.029 326.276C205.197 325.143 206.674 324.577 208.461 324.577C210.276 324.577 211.739 325.126 212.851 326.223C213.962 327.321 214.518 328.798 214.518 330.655C214.518 332.413 213.952 333.887 212.819 335.075C211.687 336.265 210.234 336.858 208.461 336.858ZM226.125 351.04C226.941 351.04 227.641 350.752 228.225 350.175C228.508 349.906 228.731 349.581 228.882 349.222C229.032 348.862 229.107 348.475 229.101 348.085C229.101 347.27 228.809 346.57 228.225 345.985C227.954 345.703 227.627 345.481 227.266 345.33C226.905 345.18 226.517 345.105 226.125 345.11C225.323 345.11 224.627 345.402 224.035 345.986C223.445 346.57 223.15 347.27 223.15 348.086C223.15 348.887 223.445 349.58 224.036 350.164C224.626 350.748 225.322 351.04 226.125 351.04ZM240.349 350.618L254.509 324.388V320.525H233.597V324.894H249.045L234.82 350.617H240.35L240.349 350.618ZM274.727 350.618V344.73H278.864V340.362H274.727V320.525H267.32L255.734 340.341V344.731H269.874V350.618H274.727ZM269.874 340.362H260.461L269.874 323.649V340.362ZM286.968 333.335C288.797 333.335 290.351 332.688 291.632 331.393C292.912 330.085 293.552 328.516 293.552 326.687C293.552 324.873 292.912 323.318 291.632 322.024C290.352 320.729 288.797 320.082 286.968 320.082C285.153 320.082 283.598 320.729 282.304 322.024C281.009 323.318 280.362 324.873 280.362 326.687C280.362 328.53 281.006 330.099 282.293 331.393C283.581 332.688 285.139 333.335 286.968 333.335ZM289.289 350.639L305.202 320.483H300.981L285.111 350.639H289.289ZM286.968 329.979C286.068 329.979 285.293 329.659 284.646 329.019C284.333 328.718 284.085 328.356 283.918 327.954C283.751 327.553 283.669 327.122 283.676 326.687C283.676 325.773 283.999 325.003 284.646 324.377C284.951 324.073 285.313 323.834 285.712 323.672C286.111 323.511 286.538 323.431 286.968 323.437C287.882 323.437 288.656 323.754 289.289 324.387C289.922 325.02 290.239 325.787 290.239 326.687C290.239 327.602 289.926 328.379 289.299 329.019C288.674 329.659 287.896 329.979 286.968 329.979ZM303.577 350.977C305.391 350.977 306.936 350.33 308.209 349.035C309.482 347.741 310.119 346.186 310.119 344.372C310.119 342.542 309.479 340.985 308.199 339.697C306.918 338.41 305.377 337.767 303.577 337.767C301.747 337.767 300.186 338.41 298.891 339.697C297.597 340.985 296.95 342.543 296.95 344.372C296.95 346.2 297.594 347.758 298.88 349.046C300.168 350.333 301.733 350.977 303.577 350.977ZM303.577 347.642C302.647 347.642 301.867 347.322 301.234 346.682C300.928 346.381 300.685 346.022 300.522 345.625C300.359 345.228 300.278 344.801 300.284 344.372C300.284 343.443 300.601 342.662 301.234 342.029C301.867 341.396 302.648 341.079 303.577 341.079C304.463 341.079 305.233 341.403 305.887 342.05C306.542 342.697 306.869 343.471 306.869 344.372C306.869 345.272 306.545 346.042 305.898 346.682C305.251 347.322 304.477 347.642 303.577 347.642Z" fill="#343A40"/>
</g>
<defs>
<clipPath id="clip0_535_48">
<rect width="540" height="485" fill="white"/>
</clipPath>
</defs>
</svg>
